<svg xmlns="http://www.w3.org/2000/svg" width="146" height="32" fill="none" viewBox="0 0 146 32"><g clip-path="url(#a)"><path d="M51.85 19.74a8 8 0 0 1-1.997 1.392c-.715.358-1.58.545-2.598.545a5.6 5.6 0 0 1-2.252-.441 5.57 5.57 0 0 1-3.021-3.019 5.6 5.6 0 0 1-.433-2.204v-.035a5.6 5.6 0 0 1 .433-2.2 5.5 5.5 0 0 1 1.206-1.8 5.6 5.6 0 0 1 4.054-1.66 7 7 0 0 1 1.466.142q.623.14 1.202.393.53.237.992.575c.308.222.6.46.877.702l.237.212.926-.898-.244-.212a13 13 0 0 0-1.044-.812 7 7 0 0 0-1.196-.666 7.6 7.6 0 0 0-1.434-.449 8.6 8.6 0 0 0-1.77-.162 7.1 7.1 0 0 0-2.822.555c-.842.355-1.6.863-2.229 1.493a6.8 6.8 0 0 0-1.455 2.182 6.8 6.8 0 0 0-.52 2.633v.036c-.005.905.17 1.804.52 2.65a6.6 6.6 0 0 0 1.456 2.163 7 7 0 0 0 2.218 1.457c.878.367 1.83.553 2.793.545a8 8 0 0 0 1.737-.181 8.6 8.6 0 0 0 1.494-.48q.68-.297 1.277-.721.565-.406 1.068-.878l.238-.221-.947-.84zM62.142 9.143l-6.37 13.714h1.327l5.513-11.92L65.76 17.6l-.785 1.695h1.576l1.669 3.562h1.266L63.122 9.143zm16.738 7.945c.386-.06.767-.16 1.133-.3a4.5 4.5 0 0 0 1.354-.799 3.5 3.5 0 0 0 .9-1.22 3.9 3.9 0 0 0 .317-1.597v-.037a3.9 3.9 0 0 0-.267-1.457 3.7 3.7 0 0 0-.739-1.174c-.425-.44-.966-.765-1.605-.998a6.7 6.7 0 0 0-2.223-.363h-5.522v13.714h1.223v-5.63h4.018l4.182 5.63H83.2zm-5.424-1.06v-5.656h4.26c1.206 0 2.109.27 2.722.76.613.491.916 1.138.922 2.037v.037a2.5 2.5 0 0 1-.239 1.118 2.44 2.44 0 0 1-.708.886 3.5 3.5 0 0 1-1.182.595 5.7 5.7 0 0 1-1.645.218h-4.13zm18.469 2.545-3.693-9.43h-3.203l.18.436 5.47 13.278h2.423l5.64-13.713h-3.14zm12.847-9.43-6.03 13.714h3.016l2.5-5.77h-.006l1.806-4.145 1.622 3.856-1.103 2.523h2.171l.768 1.82.725 1.716h3.13l-6.037-13.714zm34.559 0h-2.549l-6.039 13.714h3.012l2.501-5.766 1.801-4.158 1.618 3.85-1.112 2.541h2.184l.767 1.82.73 1.712h3.127zm-14.207 8.41-6.435-8.41h-2.569l-.006 13.714h2.878v-8.623l6.647 8.623H128V9.143h-2.876z" class="fill-content"/><path d="M31.976 15.988c0 8.83-7.157 15.988-15.99 15.988S0 24.82 0 15.988 7.157 0 15.984 0s15.992 7.16 15.992 15.988" class="fill-content-2"/><path d="M16.006 7.401q-1.284-.008-2.555.178c-.538.073-.964.214-1.145.306l.069.032q.39.158.807.23c.711.137 1.715.226 2.823.226.854.005 1.707-.054 2.551-.178.538-.076.964-.219 1.145-.31l-.069-.032a4 4 0 0 0-.803-.225c-.71-.138-1.714-.227-2.823-.227m0 1.564a18 18 0 0 1-2.638-.181c-.73-.125-1.246-.25-1.555-.524a.52.52 0 0 1-.176-.378.5.5 0 0 1 .176-.37q.142-.13.317-.206.456-.19.944-.266c.76-.146 1.795-.234 2.937-.234.881-.005 1.762.056 2.634.181.73.125 1.241.25 1.559.529a.475.475 0 0 1 0 .745q-.142.124-.313.201-.457.189-.944.27c-.769.144-1.8.233-2.94.233m6.715 6.745c-.292-.355-.808-1.217-.864-1.334l.069-.016s1.647-.089 1.353-.656c0 0-.321-.69-1.533-.69a1 1 0 0 0-.16.009l-.005-.005c-.06 0-.132.024-.164.438-1-1.865-1.695-2.252-1.695-2.252-.133-.077-.225-.125-.567-.194-.341-.068-2.964-.088-3.18-.088h-.017c-.219 0-2.835.024-3.18.088-.346.065-.438.117-.567.194 0 0-.695.387-1.695 2.252-.036-.415-.108-.438-.169-.438v.005a2 2 0 0 0-.161-.008c-1.209 0-1.526.688-1.526.688-.297.568 1.35.657 1.35.657l.072.016q-.383.697-.859 1.334c-.052.064-.358.419-.47.685-.092.25-.135.515-.129.782.013.438.061 2.34.061 2.34v2.402c0 .141.088.25.2.25h1.892c.113 0 .205-.113.205-.25v-.298h9.98v.298c0 .141.092.25.2.25h1.892c.113 0 .201-.113.201-.25v-2.402l.06-2.34a1.9 1.9 0 0 0-.128-.782c-.113-.27-.418-.621-.466-.685M11.21 13.873s.724-1.62 1.298-2.313c0 0 1.069-.048 2.502-.06l-.044.113v.245a.17.17 0 0 0 .168.17h1.663a.17.17 0 0 0 .16-.104.2.2 0 0 0 .014-.066v-.245l-.045-.114c1.434.013 2.503.061 2.503.061.574.693 1.297 2.313 1.297 2.313.104.261-.117.261-.117.261h-9.282s-.22 0-.117-.261m-1.752 3.953c-.365-.094-.401-.315-.401-.315a2.2 2.2 0 0 1 .112-.954c.12-.32.434-.355.662-.347.274.008 1.077.52 1.077.52.614.318.703 1.414.703 1.414a16 16 0 0 1-2.151-.318zm10.186.382c-1.109.093-2.701.1-3.675.1s-2.567-.007-3.671-.1c0 0-.317-.673.16-.689.069-.004 1.495-.052 3.51-.056a86 86 0 0 1 3.51.056c.485.016.167.69.167.69zm3.237-.693s-.04.219-.402.314q-1.066.226-2.152.323s.088-1.095.702-1.415c0 0 .804-.51 1.073-.52.233-.007.546.029.663.348.11.304.151.63.117.951z" class="fill-content"/></g><defs><clipPath id="a"><path d="M0 0h145.371v32H0z" class="fill-content"/></clipPath></defs></svg>