<svg xmlns="http://www.w3.org/2000/svg" width="334.88" height="200"><path d="M.002 198.99h4.721V-.045H.003V198.99zm28.299-99.166h5.34v17.26h21.14v-17.26h5.34v40.139h-5.34V121.58h-21.14v18.383h-5.34v-40.14zm39.216 0h7.308l12.648 33.731 12.707-33.731h7.308v40.139h-5.06V106.57h-.112L89.78 139.963h-4.553L72.69 106.57h-.113v33.393h-5.06v-40.14zm63.351 0h18.888c7.535 0 12.202 4.104 12.202 10.514 0 4.832-2.138 8.825-6.973 10.174v.114c4.667.898 5.624 4.326 6.016 8.263.338 3.934.113 8.319 2.36 11.074h-5.958c-1.517-1.63-.674-5.959-1.46-9.895-.563-3.934-1.52-7.252-6.692-7.252h-13.043v17.147h-5.34zm16.471 18.496c5.005 0 9.277-1.293 9.277-7.14 0-3.935-2.136-6.86-7.14-6.86h-13.268v14zm44.608 12.41c-1.293 6.41-5.903 9.895-12.424 9.895-9.276 0-13.662-6.408-13.943-15.292 0-8.714 5.735-15.122 13.662-15.122 10.288 0 13.435 9.614 13.154 16.64H170.64c-.17 5.06 2.699 9.556 9.05 9.556 3.936 0 6.691-1.912 7.535-5.678h4.72zm-4.61-8.096c-.225-4.553-3.655-8.206-8.376-8.206-5.005 0-7.984 3.767-8.32 8.206zm20.983 17.31h-5.115l-10.793-29.065h5.34l8.152 24.228h.113l7.925-24.228h5.004zm37.333-9.214c-1.292 6.41-5.902 9.895-12.424 9.895-9.276 0-13.661-6.408-13.942-15.292 0-8.714 5.734-15.122 13.661-15.122 10.288 0 13.435 9.614 13.154 16.64h-21.754c-.17 5.06 2.698 9.556 9.05 9.556 3.936 0 6.69-1.912 7.532-5.678zm-4.61-8.096c-.224-4.553-3.655-8.206-8.376-8.206-5.004 0-7.981 3.767-8.32 8.206zm8.981-11.752h4.497v4.61h.113c2.023-3.6 5.286-5.284 9.444-5.284 7.646 0 10.007 4.386 10.007 10.623v19.115h-4.778V120.27c0-3.54-2.25-5.846-5.902-5.846-5.791 0-8.603 3.878-8.603 9.107v16.416h-4.778v-29.064zm53.73 29.062h-4.496v-4.61h-.113c-2.023 3.599-5.286 5.283-9.445 5.283-7.646 0-10.006-4.385-10.006-10.623V110.88h4.778v19.675c0 3.542 2.249 5.848 5.902 5.848 5.791 0 8.603-3.88 8.603-9.108V110.88h4.777v29.065zm30.669-9.214c-1.292 6.41-5.902 9.895-12.423 9.895-9.276 0-13.662-6.408-13.943-15.292 0-8.714 5.735-15.122 13.662-15.122 10.287 0 13.435 9.614 13.153 16.64h-21.754c-.17 5.06 2.698 9.556 9.05 9.556 3.936 0 6.691-1.912 7.535-5.678zm-4.61-8.096c-.224-4.553-3.652-8.206-8.375-8.206-5.005 0-7.982 3.767-8.32 8.206zM49.664 194.005c-2.418 3.766-6.97 5.678-11.356 5.678-10.85 0-12.537-7.7-12.537-10.961 0-6.297 4.272-9.447 9.387-12.143-2.247-3.206-4.44-5.342-4.44-9.446 0-4.386 3.261-8.265 9.05-8.265 5.005 0 9.728 2.755 9.728 8.21 0 4.778-3.655 8.206-7.535 10.4l7.254 8.824a21.3 21.3 0 0 0 1.292-6.238h4.553c-.394 4.721-1.011 6.352-2.698 9.893l7.814 9.052h-6.24zm-11.862-14.392c-3.768 2.136-6.972 4.272-6.972 9.052 0 4.047 3.766 6.803 7.646 6.803 3.655 0 6.578-1.855 8.546-4.78zm6.914-12.256c0-2.303-1.742-4.272-4.61-4.272-2.25 0-4.61 1.35-4.61 4.272 0 2.417 2.136 4.778 3.88 6.973 2.304-1.463 5.34-3.599 5.34-6.973m61.721 3.611c-1.125-5.676-5.678-8.544-11.245-8.544-9.555 0-13.602 7.87-13.602 16.246 0 9.163 4.047 16.81 13.66 16.81 7.026 0 11.074-4.948 11.58-11.583h5.341c-1.013 10.006-7.253 16.081-17.37 16.081-12.481 0-18.554-9.222-18.554-20.913 0-11.637 6.635-21.14 19.002-21.14 8.376 0 15.292 4.499 16.528 13.043zm34.071 28.046h-4.496v-4.61h-.113c-2.023 3.599-5.286 5.283-9.444 5.283-7.646 0-10.007-4.385-10.007-10.623V169.95h4.778v19.675c0 3.542 2.25 5.848 5.902 5.848 5.791 0 8.603-3.88 8.603-9.108V169.95h4.777zm8.956-9.168c.167 4.272 3.877 5.622 7.813 5.622 2.98 0 7.027-.674 7.027-4.33 0-3.709-4.72-4.328-9.5-5.396-4.721-1.068-9.501-2.644-9.501-8.208 0-5.846 5.79-8.263 10.85-8.263 6.41 0 11.525 2.023 11.918 9.106h-4.778c-.338-3.71-3.599-4.89-6.746-4.89-2.868 0-6.183.789-6.183 3.709 0 3.428 5.058 3.993 9.5 5.059 4.778 1.07 9.499 2.644 9.499 8.265 0 6.916-6.465 9.165-12.367 9.165-6.521 0-12.029-2.644-12.31-9.839zm30.574-19.894h5.791v4.217h-5.79v18.045c0 2.193.618 2.585 3.598 2.585h2.192v4.217h-3.655c-4.945 0-6.913-1.01-6.913-6.353v-18.494h-4.948v-4.217h4.948v-8.714h4.777zm21.218-.686c9.22 0 14.11 6.69 14.11 15.236 0 8.487-4.89 15.178-14.11 15.178s-14.11-6.691-14.11-15.178c0-8.546 4.89-15.236 14.11-15.236m0 26.197c5.002 0 9.052-3.934 9.052-10.961 0-7.084-4.05-11.018-9.052-11.018-5.004 0-9.052 3.934-9.052 11.018 0 7.027 4.048 10.96 9.052 10.96m18.43-25.51h4.496v4.272h.114c2.136-3.261 5.396-4.946 9.387-4.946 3.542 0 6.803 1.406 7.984 4.946 1.968-3.093 5.397-4.946 9.106-4.946 5.792 0 9.671 2.417 9.671 8.43v21.308h-4.78v-19.058c0-3.598-.954-6.465-5.62-6.465-4.61 0-7.59 2.926-7.59 7.422v18.101h-4.778v-19.058c0-3.766-1.181-6.465-5.453-6.465-5.678 0-7.76 5.23-7.76 7.422v18.101h-4.777zm49.666 19.894c.168 4.272 3.877 5.622 7.814 5.622 2.98 0 7.027-.674 7.027-4.33 0-3.709-4.721-4.328-9.501-5.396-4.721-1.068-9.5-2.644-9.5-8.208 0-5.846 5.79-8.263 10.85-8.263 6.41 0 11.525 2.023 11.917 9.106h-4.778c-.337-3.71-3.598-4.89-6.745-4.89-2.869 0-6.184.789-6.184 3.709 0 3.428 5.059 3.993 9.501 5.059 4.778 1.07 9.498 2.644 9.498 8.265 0 6.916-6.464 9.165-12.366 9.165-6.522 0-12.03-2.644-12.31-9.839zM87.676 43.825c-.61-.08-1.45-.186-1.996-.26.56-1.212.898-1.911.898-1.911.033-.232.661-1.323.914-2.226.23-.735.36-2.089.36-2.313 0-2.337-.818-4.454-2.189-5.99-1.373-1.533-3.284-2.483-5.465-2.483-.444 0-.973.024-2.188.26-1.243.307-1.833.48-2.932.77-1.857.574-2.616.867-5.274 2.146-.267.127-.376.364-.43.54-.052.183-.042.32-.042.32l-.11 9.883h-1.658V31.766s-.01-.31.109-.676c.116-.366.39-.718.848-1.023.36-.234.723-.444 1.082-.643a1.49 1.49 0 0 1-.666-1.233 1.486 1.486 0 0 1 2.972 0c0 .075-.019.151-.023.222a27 27 0 0 1 1.137-.364 1.47 1.47 0 0 1-.762-1.285 1.485 1.485 0 1 1 2.97 0c0 .25-.075.486-.182.694.721-.198 1.23-.333 1.23-.333.068-.016.136-.03.214-.047a1.482 1.482 0 1 1 2.08-.454c.007-.005.02-.005.028-.01.515-.087 1.096-.103 1.62-.103a1.47 1.47 0 0 1-.283-.863c0-.827.669-1.486 1.482-1.486.822 0 1.479.66 1.479 1.486 0 .452-.206.853-.53 1.127a8.6 8.6 0 0 1 1.605.56 1.4 1.4 0 0 1-.073-.43 1.485 1.485 0 1 1 2.968 0 1.48 1.48 0 0 1-1.199 1.451 10 10 0 0 1 1.262 1.137v-.048a1.481 1.481 0 1 1 2.963 0 1.48 1.48 0 0 1-1.482 1.482c-.148 0-.276-.026-.408-.066.276.427.529.876.744 1.342a1.486 1.486 0 0 1 2.71.839c0 .817-.666 1.481-1.481 1.481-.17 0-.322-.035-.473-.085.088.409.158.822.206 1.248a1.477 1.477 0 0 1 2.049 1.37 1.48 1.48 0 0 1-1.482 1.481c-.23 0-.444-.056-.636-.15-.023.158-.05.325-.068.49-.048.17-.085.324-.126.466.73.095 1.29.707 1.29 1.47a1.48 1.48 0 0 1-2.31 1.224c-.201.475-.463 1.087-.752 1.788m-21.95-1.157c-.79 0-1.42-.636-1.42-1.42 0-.79.63-1.425 1.42-1.425h.014c.792 0 1.42.635 1.42 1.425 0 .784-.628 1.42-1.42 1.42zm.014-3.45c.754 0 1.356-.607 1.356-1.359 0-.746-.602-1.356-1.356-1.356h-.014c-.754 0-1.356.61-1.356 1.356 0 .752.602 1.359 1.356 1.359zm-.01-3.332a1.29 1.29 0 0 1-1.292-1.294c0-.719.57-1.295 1.293-1.298h.01a1.29 1.29 0 0 1 1.29 1.298c0 .713-.573 1.29-1.29 1.294zm.008-6.072a1.22 1.22 0 0 0 0-2.44h-.01a1.22 1.22 0 0 0 0 2.44zm-.008 2.953a1.235 1.235 0 0 1 0-2.47l.01.001a1.235 1.235 0 0 1 0 2.47zm4.294-19.587a.28.28 0 0 0-.274-.203.3.3 0 0 0-.29.205c-.28 1.09-.84 2.115-2.976 2.297.095-.933.34-1.638.761-2.138.4-.433.952-.721 1.758-.894a.3.3 0 0 0 .177-.078.28.28 0 0 0 .062-.198.26.26 0 0 0-.083-.196.27.27 0 0 0-.177-.062h-6.496a.27.27 0 0 0-.177.062.26.26 0 0 0-.082.196.27.27 0 0 0 .061.198.3.3 0 0 0 .177.078c.806.173 1.361.461 1.758.894.42.5.666 1.205.761 2.138-2.136-.182-2.696-1.208-2.975-2.297a.3.3 0 0 0-.29-.205.28.28 0 0 0-.275.203l-.007.019v5.945c0 .108.093.26.305.252.215 0 .267-.12.293-.174l.007-.029c.506-1.238 1.574-2.039 2.954-2.244-.083.975-.336 1.705-.78 2.223-.402.435-.93.711-1.75.886l-.024.005a.3.3 0 0 0-.154.078.28.28 0 0 0-.061.208c0 .092.047.153.082.186a.36.36 0 0 0 .194.066h6.462a.36.36 0 0 0 .194-.066.25.25 0 0 0 .083-.186.28.28 0 0 0-.062-.208.3.3 0 0 0-.153-.078l-.024-.005c-.82-.175-1.351-.451-1.75-.886-.445-.518-.698-1.248-.78-2.223 1.38.205 2.447 1.006 2.953 2.244l.007.029c.026.054.078.174.29.174.216.007.308-.144.308-.252v-5.945l-.007-.02zM65.74 27.168c1.734 0 3.145-1.409 3.145-3.145s-1.41-3.145-3.145-3.145h-.01c-1.734 0-3.147 1.408-3.147 3.145s1.413 3.145 3.148 3.145h.01zM43.043 42.03a1.479 1.479 0 0 1-2.31-1.224 1.47 1.47 0 0 1 1.29-1.47c-.04-.142-.079-.298-.126-.465-.019-.168-.045-.334-.068-.492a1.5 1.5 0 0 1-.636.151 1.48 1.48 0 0 1-1.482-1.483 1.476 1.476 0 0 1 2.049-1.369q.072-.637.206-1.247c-.152.05-.303.085-.475.085-.813 0-1.48-.666-1.48-1.482a1.48 1.48 0 0 1 1.48-1.483c.517 0 .959.255 1.23.645.216-.466.468-.915.745-1.342-.132.037-.26.063-.409.063-.82 0-1.481-.661-1.481-1.479a1.482 1.482 0 1 1 2.963 0v.045a10 10 0 0 1 1.261-1.136 1.48 1.48 0 0 1-1.2-1.449 1.487 1.487 0 0 1 2.972 0c0 .15-.03.289-.075.428a9 9 0 0 1 1.602-.56 1.48 1.48 0 0 1 .955-2.613c.81 0 1.479.661 1.479 1.486 0 .324-.107.617-.284.862.525 0 1.106.017 1.62.107.008.004.022.004.03.01a1.5 1.5 0 0 1-.22-.78c0-.82.656-1.484 1.481-1.484a1.483 1.483 0 0 1 .817 2.717c.078.014.147.03.216.047 0 0 .508.135 1.228.333a1.5 1.5 0 0 1-.182-.694 1.483 1.483 0 1 1 2.968 0 1.47 1.47 0 0 1-.756 1.283 36 36 0 0 1 1.134.366c-.005-.071-.024-.147-.024-.222a1.486 1.486 0 0 1 2.973 0c0 .515-.27.966-.669 1.233.36.199.723.409 1.085.643.458.305.734.657.848 1.02.118.369.109.679.109.679v10.795H62.25l-.11-9.886s.009-.134-.043-.316c-.055-.178-.163-.416-.43-.541-2.659-1.279-3.417-1.572-5.274-2.148-1.099-.289-1.69-.461-2.935-.768-1.212-.236-1.741-.26-2.185-.26-2.181 0-4.093.95-5.468 2.483-1.366 1.536-2.185 3.65-2.185 5.99 0 .222.13 1.578.359 2.313.252.903.881 1.994.914 2.224 0 0 .338.701.898 1.913-.546.074-1.39.178-1.997.26-.29-.701-.55-1.313-.751-1.788" class="fill-content"/><path d="M89 45.007c-.147-.208-.383-.345-.681-.392-.102-.02-2.92-.39-3.251-.435-.1-.007-.22.061-.253.234-.038.191.085.3.168.323l-.022-.009c1.503.697 2.39 2.117 2.41 3.814-2.332-.482-2.915-1.678-3.062-3.33 0-.07-.066-.198-.26-.215-.17-.014-.26.071-.293.147l-.004.014-.891 7.143v.01c0 .098.068.221.222.257s.284-.055.321-.159c.707-1.512 2.11-2.412 3.778-2.455-.446 1.676-1.698 2.978-3.326 3.417l.007.005a196 196 0 0 0-3.677-.352c-1.181-.355-2.048-.988-2.365-2.46a2.2 2.2 0 0 1 .125-.572c.3-.808.884-1.342 1.536-1.106.68.256.751 1.024.454 1.832a2.15 2.15 0 0 1-.532.815c.707-.014 1.337-.265 1.836-.969.827-1.177.73-2.991-.562-3.738-.841-.491-2.013.08-2.902 1.189.27-1.746 1.33-3.287 1.45-4.634.169-1.897-.561-4.007-1.603-4.588-1.083.397-2.07 2.355-2.165 4.248-.061 1.35.853 3.128.9 4.907-.73-1.268-1.845-2.024-2.757-1.644-1.382.565-1.73 2.346-1.068 3.624.409.766.99 1.1 1.69 1.21a2.06 2.06 0 0 1-.414-.881c-.182-.844-.017-1.59.697-1.746.676-.147 1.184.451 1.368 1.295q.09.408.03.775v-.003c-.536 1.27-1.504 1.71-2.712 2.009a173 173 0 0 0-3.707-.126l-.132-.026c-1.749-.28-2.64-1.398-2.817-3.494 1.538.231 2.734 1.132 3.294 2.51.026.082.118.21.324.21.238 0 .323-.157.323-.263v-6.607a.3.3 0 0 0-.3-.212.32.32 0 0 0-.3.199v.004l-.007.01c-.307 1.217-.938 2.365-3.338 2.561.196-2.334 1.264-3.053 2.82-3.39a.26.26 0 0 0 .18-.086.27.27 0 0 0 .076-.191v-.019a.3.3 0 0 0-.1-.203.27.27 0 0 0-.174-.069h-7.202a.27.27 0 0 0-.175.069.3.3 0 0 0-.101.203v.019a.27.27 0 0 0 .078.191.26.26 0 0 0 .18.085c1.556.338 2.624 1.057 2.823 3.391-2.403-.196-3.034-1.344-3.339-2.561l-.01-.01v-.004a.32.32 0 0 0-.3-.199.3.3 0 0 0-.297.213v6.606c0 .106.085.262.319.262.208 0 .3-.127.326-.21.56-1.377 1.758-2.278 3.291-2.51-.175 2.097-1.065 3.214-2.814 3.495l-.132.026c-1.24.029-2.481.071-3.707.126-1.208-.298-2.177-.74-2.71-2.009v.003a2 2 0 0 1 .03-.775c.184-.844.69-1.442 1.366-1.295.716.156.879.902.7 1.746a2.1 2.1 0 0 1-.417.881c.7-.11 1.281-.444 1.692-1.21.66-1.278.312-3.06-1.068-3.624-.914-.38-2.027.376-2.76 1.644.05-1.779.964-3.558.9-4.907-.091-1.893-1.081-3.851-2.164-4.248-1.042.58-1.772 2.69-1.604 4.588.12 1.347 1.181 2.888 1.448 4.634-.886-1.109-2.058-1.68-2.899-1.189-1.292.747-1.39 2.561-.56 3.738.499.704 1.127.955 1.834.969a2.2 2.2 0 0 1-.53-.815c-.3-.808-.229-1.576.452-1.832.654-.236 1.236.298 1.533 1.106.074.192.111.385.128.572-.317 1.472-1.184 2.105-2.365 2.46a198 198 0 0 0-3.677.352l.007-.005c-1.628-.44-2.88-1.741-3.324-3.417 1.666.043 3.07.943 3.778 2.455a.27.27 0 0 0 .319.159c.156-.036.224-.159.224-.258v-.01l-.89-7.142-.007-.014c-.031-.076-.123-.16-.293-.147-.194.017-.26.144-.26.215-.147 1.652-.73 2.848-3.063 3.33.024-1.697.908-3.117 2.41-3.814l-.02.01c.082-.024.205-.133.167-.324-.033-.173-.151-.241-.253-.234-.33.045-3.15.416-3.249.435-.3.047-.536.184-.683.392q-.24.334-.15.86c.082.48 1.063 7.372 1.157 8.005.007.054.083.7.109.89.028.202.283.402.283.402s1.442.974 1.697 1.17c.243.187.104.513.104.513l-1.279 1.869c-.101.125-.156.25-.156.25a.7.7 0 0 0-.042.241c0 .227.104.426.276.553l21.062.007h.518l20.958-.007a.685.685 0 0 0 .231-.794s-.052-.125-.156-.25l-1.278-1.87s-.14-.325.107-.512c.252-.196 1.694-1.17 1.694-1.17s.255-.2.286-.401l.108-.891c.092-.633 1.073-7.526 1.156-8.005q.09-.526-.152-.86m-31.732 11.84-4.697.248a.865.865 0 0 1-.912-.818l-.04-.668a.865.865 0 0 1 .827-.905l4.692-.255a.87.87 0 0 1 .915.824l.037.662a.87.87 0 0 1-.822.912m10.36-1.186-1.672 1.673a.32.32 0 0 1-.217.096h-.007a.33.33 0 0 1-.22-.096l-1.673-1.673a.33.33 0 0 1 0-.482l1.673-1.673a.33.33 0 0 1 .22-.095h.007a.32.32 0 0 1 .217.095l1.673 1.673a.33.33 0 0 1 0 .482m12.183.616a.866.866 0 0 1-.915.818l-4.697-.248a.87.87 0 0 1-.822-.912l.037-.662a.87.87 0 0 1 .917-.824l4.69.255a.86.86 0 0 1 .827.905z" class="fill-content"/><path d="M65.733-.028c22.14 0 40.151 18.01 40.151 40.149 0 22.141-18.012 40.153-40.151 40.153S25.584 62.262 25.584 40.12c0-22.14 18.01-40.15 40.149-40.15m0 75.601c19.545 0 35.447-15.904 35.447-35.451 0-19.546-15.902-35.447-35.447-35.447S30.286 20.575 30.286 40.12c0 19.547 15.902 35.451 35.447 35.451" class="fill-content"/></svg>