<svg xmlns="http://www.w3.org/2000/svg" width="845.85" height="170.09" fill="none"><path d="M434.23 98.424c0 41.39 34.318 71.666 77.917 71.666 43.596 0 77.953-30.276 77.953-71.666V3.331h-42.216v90.191c0 22.342-15.493 37.386-35.851 37.386s-35.851-14.969-35.851-37.386V3.331h-42.213zM702.89 41.39h50.37v125.56h42.213V41.39h50.373V3.256h-142.96zM675.608 3.256h-42.213v163.69h42.213zM263.688 41.39h50.372v125.56h42.214V41.39h50.334V3.256h-142.92zM42.218 3.256H.004v163.69h42.214zm199.24 68.373C241.458 30.238 207.14 0 163.505 0S85.552 30.238 85.552 71.629v95.317h42.214V76.755c0-22.342 15.494-37.386 35.852-37.386s35.852 14.969 35.852 37.386v90.191h42.214l-.262-95.317z" class="fill-content"/></svg>