<svg xmlns="http://www.w3.org/2000/svg" width="60.95" height="41" viewBox="0 0 60.95 41"><path fill="#00251c" d="M52.648 22.09v2.381a.086.086 0 0 1-.086.086h-1.535a.09.09 0 0 1-.088-.086V22.09h-3.982a.09.09 0 0 1-.088-.088v-1.395a.5.5 0 0 1 .013-.114l2.566-10.888a.09.09 0 0 1 .086-.067H51a.09.09 0 0 1 .088.088v.019l-2.471 10.9h2.321v-3.346a.09.09 0 0 1 .088-.088h1.533a.09.09 0 0 1 .088.088v3.352h1.229a.09.09 0 0 1 .088.088v1.365a.09.09 0 0 1-.088.088Zm2.246 2.38v-1.336a.5.5 0 0 1 .047-.215l3.623-7.683a6.1 6.1 0 0 0 .676-2.811c0-1.012-.57-1.507-1.292-1.507a1.357 1.357 0 0 0-1.358 1.507v.691a.09.09 0 0 1-.088.088h-1.481a.09.09 0 0 1-.088-.088v-.646a3 3 0 0 1 .844-2.3 3.2 3.2 0 0 1 2.172-.8 3 3 0 0 1 2.11.76 3.1 3.1 0 0 1 .887 2.368 8.6 8.6 0 0 1-.861 3.4l-3.354 7.129h4.131a.09.09 0 0 1 .088.088v1.36a.086.086 0 0 1-.086.086h-5.881a.086.086 0 0 1-.088-.084zM.441 40.535v-31a.15.15 0 0 1 .15-.148h5.2a.15.15 0 0 1 .151.151v31a.15.15 0 0 1-.151.151h-5.2a.15.15 0 0 1-.149-.149m8.627-22.007a20 20 0 0 1 .215-3.074 7.32 7.32 0 0 1 3.584-5.334 8.44 8.44 0 0 1 4.393-1.076 8.44 8.44 0 0 1 4.393 1.076 7.32 7.32 0 0 1 3.586 5.334 20.5 20.5 0 0 1 .215 3.074v13a20.5 20.5 0 0 1-.215 3.072 7.3 7.3 0 0 1-3.584 5.323 8.45 8.45 0 0 1-4.393 1.076 8.45 8.45 0 0 1-4.393-1.076 7.3 7.3 0 0 1-3.584-5.336 20 20 0 0 1-.215-3.072Zm5.5 13.856a3.33 3.33 0 0 0 .728 2.344 2.87 2.87 0 0 0 3.935 0 3.33 3.33 0 0 0 .728-2.344V17.67a3.33 3.33 0 0 0-.728-2.344 2.87 2.87 0 0 0-3.935 0 3.35 3.35 0 0 0-.728 2.344ZM45.732 9.553l-7.048 31.016a.15.15 0 0 1-.144.116h-4.608a.15.15 0 0 1-.146-.116L26.741 9.553a.15.15 0 0 1 .115-.18h5.431a.15.15 0 0 1 .149.123l3.796 19.944 3.806-19.948a.15.15 0 0 1 .146-.123h5.412a.15.15 0 0 1 .139.162v.021M3.19 0A3.19 3.19 0 1 1 0 3.19 3.19 3.19 0 0 1 3.19 0"/></svg>