<svg xmlns="http://www.w3.org/2000/svg" width="60.95" height="41" viewBox="0 0 60.95 41"><g transform="translate(-20 -20)"><path d="M223.51,56.862v2.381a.086.086,0,0,1-.086.086h-1.535a.088.088,0,0,1-.088-.086V56.862h-3.982a.088.088,0,0,1-.088-.088V55.379a.511.511,0,0,1,.013-.114l2.566-10.888a.088.088,0,0,1,.086-.067h1.466a.088.088,0,0,1,.088.088.087.087,0,0,1,0,.019l-2.471,10.9H221.8V51.971a.088.088,0,0,1,.088-.088h1.533a.088.088,0,0,1,.088.088v3.352h1.229a.088.088,0,0,1,.088.088v1.365a.088.088,0,0,1-.088.088Z" transform="translate(-150.862 -14.772)" fill="#00251c"/><path d="M255.019,58.615V57.279a.519.519,0,0,1,.047-.215l3.623-7.683a6.1,6.1,0,0,0,.676-2.811c0-1.012-.57-1.507-1.292-1.507a1.357,1.357,0,0,0-1.358,1.507v.691a.088.088,0,0,1-.088.088h-1.481a.088.088,0,0,1-.088-.088v-.646a2.989,2.989,0,0,1,.844-2.3,3.206,3.206,0,0,1,2.172-.8,3.014,3.014,0,0,1,2.11.76,3.1,3.1,0,0,1,.887,2.368,8.638,8.638,0,0,1-.861,3.4l-3.354,7.129h4.131a.088.088,0,0,1,.088.088V58.62a.086.086,0,0,1-.086.086h-5.881a.086.086,0,0,1-.088-.084.03.03,0,0,1,0-.007" transform="translate(-180.125 -14.145)" fill="#00251c"/><path d="M2.05,74.758v-31A.149.149,0,0,1,2.2,43.61H7.4a.151.151,0,0,1,.151.151v31a.151.151,0,0,1-.151.151H2.2a.149.149,0,0,1-.149-.149v0" transform="translate(18.391 -14.223)" fill="#00251c"/><path d="M42.129,51.524a20.259,20.259,0,0,1,.215-3.074,7.318,7.318,0,0,1,3.584-5.334,8.438,8.438,0,0,1,4.393-1.076,8.438,8.438,0,0,1,4.393,1.076A7.318,7.318,0,0,1,58.3,48.45a20.543,20.543,0,0,1,.215,3.074v13a20.485,20.485,0,0,1-.215,3.072,7.308,7.308,0,0,1-3.584,5.323,8.445,8.445,0,0,1-4.393,1.076,8.445,8.445,0,0,1-4.393-1.076,7.308,7.308,0,0,1-3.584-5.336,20.2,20.2,0,0,1-.215-3.072Zm5.5,13.856a3.332,3.332,0,0,0,.728,2.344,2.868,2.868,0,0,0,3.935,0,3.332,3.332,0,0,0,.728-2.344V50.661a3.332,3.332,0,0,0-.728-2.344,2.868,2.868,0,0,0-3.935,0,3.345,3.345,0,0,0-.728,2.344Z" transform="translate(-13.06 -12.991)" fill="#00251c"/><path d="M143.2,43.713l-7.048,31.016a.149.149,0,0,1-.144.116H131.4a.153.153,0,0,1-.146-.116l-7.045-31.016a.151.151,0,0,1,.115-.18.154.154,0,0,1,.031,0h5.4a.151.151,0,0,1,.149.123L133.7,63.6l3.806-19.948a.151.151,0,0,1,.146-.123h5.412a.151.151,0,0,1,.139.162.187.187,0,0,1,0,.021" transform="translate(-77.468 -14.16)" fill="#00251c"/><path d="M3.19,0A3.19,3.19,0,1,1,0,3.19,3.19,3.19,0,0,1,3.19,0" transform="translate(20 20)" fill="#00251c"/></g></svg>
