<svg xmlns="http://www.w3.org/2000/svg" data-name="Layer 1" viewBox="0 0 1302.4 1366.6"><path d="m1203.3 603.7-66.7-29.9V98.5L986.9 31 834 100.2v226.5l-99.2-16.6-99.4 81.8L506.8 372l-69.3 57.1-54.8-204-162.4-27.4-131 107.4 231 846 374.9 184.8 517.9-236.1V608.4l-9.9-4.4ZM987 66.3l117.4 53v440l-114.1-51.2-42.1 18.4-51-189.2-30.9-5.2V120.9zM744 344.2l127.5 21.5 46.9 174-155.9 68.4v201.5L658.2 415l85.9-70.7ZM419.3 485.7l96.8-79.7 110.7 17.1 104.8 396.5-84 70.1-129.7-21.5-99-382.1.4-.3Zm-71.7 642.7L125.9 316.6l103.5-84.8 127.5 21.5 53.2 198.2-27.6 22.7 109.4 422.3 165 27.3 105.4-88v263.6l186.5 85-253.1 115.4-348.1-171.6Zm833.3-49.6-193.1 88-193.1-88V629.1l195.5-85.7 114.2 51.3v.2l76.5 34.2v449.8Z" style="fill:#000;stroke-width:0"/></svg>