<?xml version="1.0" encoding="UTF-8"?>
<!-- Generator: Adobe Illustrator 26.0.2, SVG Export Plug-In . SVG Version: 6.00 Build 0)  -->
<svg version="1.1" id="Layer_1" xmlns="http://www.w3.org/2000/svg" xmlns:xlink="http://www.w3.org/1999/xlink" x="0px" y="0px" viewBox="0 0 140 25" style="enable-background:new 0 0 140 25;" xml:space="preserve">
<style type="text/css">
	.st0{fill-rule:evenodd;clip-rule:evenodd;fill:#05B89C;}
	.st1{fill-rule:evenodd;clip-rule:evenodd;fill:#120A3D;}
</style>
<path class="st0" d="M7,18.5c-0.1-0.1-0.1-0.1-0.1-0.2L2.7,6.8C4.2,5.2,6,4,8.1,3.5C10.2,3,12.4,3.2,14.4,4c2,0.8,3.7,2.2,4.9,4  c1.2,1.8,1.8,4,1.8,6.2c0,1.5-0.3,3.1-0.9,4.5L17,9.7l-0.3-0.9c-0.5-1.5-1.5-2.2-2.9-2.2c-1.4,0-2.4,0.8-2.9,2.2l-0.2,0.5l-1.3,3.8  l-1.8,5.1c0,0.1,0,0.2-0.1,0.2c-0.1,0.1-0.1,0.1-0.2,0.1C7.1,18.6,7,18.5,7,18.5z M14.1,9.6l2.9,8.4l1.2,3.5c-1.7,1.9-4,3-6.5,3.3  c-2.5,0.3-5-0.3-7-1.7c-2.1-1.4-3.6-3.5-4.3-6c-0.7-2.5-0.5-5.1,0.4-7.4l3.4,9.3c0.5,1.5,1.6,2.2,2.9,2.2h0c1.4,0,2.4-0.8,2.9-2.2  l0.2-0.6l3.1-8.8c0-0.1,0.1-0.2,0.1-0.2c0.1-0.1,0.1-0.1,0.2-0.1c0.1,0,0.1,0,0.2,0.1C14,9.5,14,9.5,14.1,9.6z"/>
<path class="st1" d="M109.4,1.9c0,1-0.8,1.9-1.8,1.9c-1,0-1.8-0.8-1.8-1.9c0-1,0.8-1.9,1.8-1.9C108.6,0,109.4,0.8,109.4,1.9z   M48.2,6.4c-4.2,0-7,3.3-7,7.5c0,4.4,3.1,7.6,7.4,7.6c2.7,0,5-1.3,6.2-3.8l-2.2-1.2c-0.8,1.6-2.4,2.3-4.1,2.3  c-2.5,0-4.3-1.7-4.6-4.2h11.1v-1.2C55.1,9.5,52.4,6.4,48.2,6.4z M48.2,9c2.3,0,3.9,1.5,4,3.8H44C44.3,10.6,45.9,9,48.2,9z M29.1,6.8  h-3l4.5,12.4c0.5,1.5,1.6,2.2,2.9,2.2c1.4,0,2.4-0.8,2.9-2.2l4.5-12.4h-3l-4.1,11.7c0,0.1,0,0.2-0.1,0.2c-0.1,0.1-0.1,0.1-0.2,0.1  c-0.1,0-0.2,0-0.2-0.1c-0.1-0.1-0.1-0.1-0.1-0.2L29.1,6.8z M56.7,21.1v-8.5c0-3.5,1.9-6.1,5.6-6.1c0.9,0,1.7,0.2,2.5,0.5v2.9  c-0.7-0.4-1.5-0.6-2.2-0.6c-1.9,0-3,1.3-3,3.4v8.4H56.7z M68.8,6.8h-3l4.5,12.4c0.6,1.5,1.5,2.2,2.9,2.2c1.4,0,2.4-0.8,2.9-2.2  l4.5-12.4h-3l-4.1,11.7c0,0.1-0.1,0.2-0.1,0.2c-0.1,0.1-0.1,0.1-0.2,0.1c-0.1,0-0.2,0-0.2-0.1c-0.1-0.1-0.1-0.1-0.1-0.2L68.8,6.8z   M81,13.8c0-4.1,2.9-7.5,7-7.5c4.2,0,6.8,3.1,6.8,7.1v1.2H83.7c0.3,2.5,2.1,4.2,4.6,4.2c1.7,0,3.2-0.8,4.1-2.3l2.2,1.2  c-1.2,2.4-3.5,3.8-6.2,3.8C84.1,21.4,81,18.2,81,13.8z M92,12.8C91.9,10.5,90.3,9,88,9c-2.3,0-3.9,1.7-4.2,3.8H92z M96.5,12.6v8.5  h2.8v-8.4c0-2.1,1.1-3.4,3-3.4c0.8,0,1.6,0.2,2.3,0.6V7c-0.8-0.4-1.6-0.5-2.5-0.5C98.4,6.5,96.5,9.1,96.5,12.6z M110.8,13.9  c0-4.1,3.3-7.5,7.3-7.5c2.6,0,4.9,1.2,6.2,3.8l-2.3,1.3c-0.4-0.7-0.9-1.3-1.6-1.8c-0.7-0.4-1.5-0.6-2.3-0.6c-2.4,0-4.5,2.1-4.5,4.7  s2,4.8,4.5,4.8c0.8,0,1.6-0.2,2.3-0.6c0.7-0.4,1.2-1,1.6-1.8l2.3,1.3c-1.3,2.6-3.6,3.8-6.2,3.8C114,21.5,110.8,18,110.8,13.9z   M137.3,7.8V6.5h2.7v14.3h-2.7v-2.5c-1.1,1.8-2.9,3.1-5.2,3.1c-4,0-7-3.5-7-7.5s3.2-7.5,7.4-7.5C134.4,6.4,136.1,6.8,137.3,7.8z   M129.3,17.3c0.9,0.9,2.1,1.4,3.3,1.4c2.6,0,4.6-2.4,4.6-5c0-2.6-2-4.6-4.6-4.6c-1.2,0-2.4,0.5-3.3,1.4c-0.9,0.9-1.4,2.1-1.4,3.4  C127.9,15.2,128.4,16.4,129.3,17.3z M109.1,6.8v14.3h-2.8V6.8H109.1z"/>
</svg>