<svg xmlns="http://www.w3.org/2000/svg" width="1365.333" height="1365.333" version="1.0" viewBox="0 0 1024 1024"><path d="M746.9 7.8c-3 1.5-7.7 3.7-10.5 4.9-12.5 5.6-56.5 25.3-61.9 27.8-3.3 1.5-8.2 3.7-11 5-2.7 1.2-9.9 4.4-16 7-6 2.7-11.2 5-11.4 5.2s-.4 39.8-.4 88c0 48.3-.1 88.1-.3 88.4-.2.4-2.1.3-4.1-.1-2.1-.5-5.8-1.1-8.3-1.4s-5.5-.8-6.6-1c-3.1-.6-9.4-1.6-13.3-2.2-1.9-.2-4.7-.6-6.3-.9-1.5-.3-4.3-.7-6-1-1.8-.3-6-1-9.3-1.6s-7.3-1.3-8.8-1.5-5.3-.8-8.4-1.4c-3.1-.5-6.2-1-6.7-1-.9 0-13.5 9.9-24.1 18.8-1.1 1-5.4 4.4-9.5 7.7s-7.7 6.2-8 6.5-4.1 3.5-8.5 7c-4.4 3.6-8.2 6.7-8.5 7-1.5 1.6-16.8 13.8-18.3 14.6-1.2.7-4.7.5-11.5-.7-5.3-.9-11.6-1.9-13.9-2.3-2.2-.3-5.2-.7-6.5-1-1.2-.3-3.9-.8-5.8-1.1-8.8-1.3-30.8-4.8-44.1-7-17-2.9-17.3-2.9-19.1-1.2-.7.7-4.9 4.2-9.3 7.7-4.4 3.6-8.2 6.7-8.5 7s-3.9 3.2-8 6.5-7.7 6.2-8 6.5-2.7 2.4-5.5 4.5c-2.7 2.2-5.2 4.2-5.5 4.5s-2.1 1.8-3.9 3.2l-3.5 2.7-3.3-12.7c-1.9-7-3.5-13.4-3.7-14.2-.2-.9-2.5-9.4-5.1-19-7.1-26.1-11.5-42.6-19.5-72.5-10.7-40.1-10.8-40.4-12.8-40.3-1.7 0-8.5-1-11.2-1.7-.8-.2-3.7-.7-6.5-1.1-2.7-.3-5.9-.8-7-1s-4.7-.9-8-1.4-8.7-1.4-12-2c-3.3-.5-8-1.3-10.5-1.5-2.5-.3-5.2-.8-6.1-1.1-.9-.2-3.4-.7-5.5-1-2.2-.2-4.6-.6-5.4-.9-.8-.2-3.5-.7-6-1s-5.8-.8-7.5-1.1c-1.6-.3-4.3-.7-6-1-1.6-.2-5.5-.9-8.5-1.4s-7.3-1.2-9.5-1.5-6.6-1-9.8-1.6l-5.7-1-35.3 28.8c-19.3 15.8-39 31.9-43.7 35.8-4.7 3.8-10.4 8.4-12.5 10.2-2.2 1.7-5.1 4-6.3 5l-2.4 1.9 4.7 16.9c6.3 23.4 9.3 34.3 18.5 69 4.4 16.5 9.2 34 10.5 39 1.4 4.9 5.4 20 9 33.5s6.9 25.8 7.4 27.5c.6 1.6 2.6 9.3 4.7 17 2 7.7 4.9 18.7 6.5 24.5 1.5 5.8 4.6 17.5 6.9 26s4.9 18 5.7 21c.9 3 1.8 5.9 1.9 6.5.1.5.7 3 1.4 5.5s1.4 5.2 1.6 6 1.1 4.2 2 7.5 1.8 6.7 2 7.5c.3 1.6 5.7 21.4 7.9 29.5 2 7.4 5.8 21.4 9.3 34.5 4.6 17.2 6.9 26 10.3 38.3 1.7 6.2 4.1 15.5 5.5 20.7s3.1 11.7 3.9 14.5c.9 2.7 4.6 16.7 8.4 31s7.8 29.4 9 33.5c4.6 17.3 18.9 70.7 19.4 72.5.2 1.1 3.2 12.1 6.6 24.5 6.8 25.2 11.5 42.5 13 48.6l1.1 4 19.2 9.4c10.6 5.1 30.3 14.7 43.8 21.3s31.9 15.5 41 19.9c9.1 4.5 26.2 12.8 38 18.5 11.8 5.8 28.9 14.1 38 18.5s25.3 12.3 36 17.6c10.7 5.2 28.2 13.7 38.9 18.9s23.6 11.4 28.6 13.9l9.2 4.5 11.9-5.4c6.5-3 13.9-6.3 16.4-7.4s11.3-5.1 19.5-8.8c8.3-3.7 17.5-7.8 20.5-9.2s23.5-10.6 45.5-20.5 43.3-19.5 47.3-21.4c4.1-1.9 7.5-3.4 7.7-3.4s4.6-2 9.9-4.5 9.8-4.5 10-4.5 4.2-1.7 8.8-3.9c9.4-4.4 11.1-5.1 33.8-15.1 9.1-4 20.7-9.2 25.9-11.6 5.1-2.4 9.5-4.4 9.6-4.4.2 0 3.2-1.3 6.7-2.9s18-8.2 32.3-14.6 34.8-15.7 45.5-20.5 26.3-11.8 34.5-15.5c8.3-3.7 15.5-7.1 16-7.5.7-.6 1-65.5 1-191.1V454.6l-11.1-5c-6.1-2.8-19.5-8.9-29.7-13.5l-18.7-8.4-.2-185-.3-185-19.5-8.8c-27.9-12.6-28.9-13-46-20.7-8.5-3.9-23.6-10.6-33.5-15.1S753.3 5 753 5c-.3.1-3 1.3-6.1 2.8"/></svg>