<?xml version="1.0" standalone="no"?>
<!DOCTYPE svg PUBLIC "-//W3C//DTD SVG 20010904//EN"
 "http://www.w3.org/TR/2001/REC-SVG-20010904/DTD/svg10.dtd">
<svg version="1.0" xmlns="http://www.w3.org/2000/svg"
 width="1024.000000pt" height="1024.000000pt" viewBox="0 0 1024.000000 1024.000000"
 preserveAspectRatio="xMidYMid meet">
<metadata>
Created by potrace 1.14, written by Peter Selinger 2001-2017
</metadata>
<g transform="translate(0.000000,1024.000000) scale(0.100000,-0.100000)"
fill="#000000" stroke="none">
<path d="M7469 10162 c-30 -15 -77 -37 -105 -49 -125 -56 -565 -253 -619 -278
-33 -15 -82 -37 -110 -50 -27 -12 -99 -44 -160 -70 -60 -27 -112 -50 -114 -52
-2 -2 -4 -398 -4 -880 0 -483 -1 -881 -3 -884 -2 -4 -21 -3 -41 1 -21 5 -58
11 -83 14 -25 3 -55 8 -66 10 -31 6 -94 16 -133 22 -19 2 -47 6 -63 9 -15 3
-43 7 -60 10 -18 3 -60 10 -93 16 -33 6 -73 13 -88 15 -15 2 -53 8 -84 14 -31
5 -62 10 -67 10 -9 0 -135 -99 -241 -188 -11 -10 -54 -44 -95 -77 -41 -33 -77
-62 -80 -65 -3 -3 -41 -35 -85 -70 -44 -36 -82 -67 -85 -70 -15 -16 -168 -138
-183 -146 -12 -7 -47 -5 -115 7 -53 9 -116 19 -139 23 -22 3 -52 7 -65 10 -12
3 -39 8 -58 11 -88 13 -308 48 -441 70 -170 29 -173 29 -191 12 -7 -7 -49 -42
-93 -77 -44 -36 -82 -67 -85 -70 -3 -3 -39 -32 -80 -65 -41 -33 -77 -62 -80
-65 -3 -3 -27 -24 -55 -45 -27 -22 -52 -42 -55 -45 -3 -3 -21 -18 -39 -32
l-35 -27 -33 127 c-19 70 -35 134 -37 142 -2 9 -25 94 -51 190 -71 261 -115
426 -195 725 -107 401 -108 404 -128 403 -17 0 -85 10 -112 17 -8 2 -37 7 -65
11 -27 3 -59 8 -70 10 -11 2 -47 9 -80 14 -33 5 -87 14 -120 20 -33 5 -80 13
-105 15 -25 3 -52 8 -61 11 -9 2 -34 7 -55 10 -22 2 -46 6 -54 9 -8 2 -35 7
-60 10 -25 3 -58 8 -75 11 -16 3 -43 7 -60 10 -16 2 -55 9 -85 14 -30 5 -73
12 -95 15 -22 3 -66 10 -98 16 l-57 10 -353 -288 c-193 -158 -390 -319 -437
-358 -47 -38 -104 -84 -125 -102 -22 -17 -51 -40 -63 -50 l-24 -19 47 -169
c63 -234 93 -343 185 -690 44 -165 92 -340 105 -390 14 -49 54 -200 90 -335
36 -135 69 -258 74 -275 6 -16 26 -93 47 -170 20 -77 49 -187 65 -245 15 -58
46 -175 69 -260 23 -85 49 -180 57 -210 9 -30 18 -59 19 -65 1 -5 7 -30 14
-55 7 -25 14 -52 16 -60 2 -8 11 -42 20 -75 9 -33 18 -67 20 -75 3 -16 57
-214 79 -295 20 -74 58 -214 93 -345 46 -172 69 -260 103 -383 17 -62 41 -155
55 -207 14 -52 31 -117 39 -145 9 -27 46 -167 84 -310 38 -143 78 -294 90
-335 46 -173 189 -707 194 -725 2 -11 32 -121 66 -245 68 -252 115 -425 130
-486 l11 -40 192 -94 c106 -51 303 -147 438 -213 135 -66 319 -155 410 -199
91 -45 262 -128 380 -185 118 -58 289 -141 380 -185 91 -44 253 -123 360 -176
107 -52 282 -137 389 -189 107 -52 236 -114 286 -139 l92 -45 119 54 c65 30
139 63 164 74 25 11 113 51 195 88 83 37 175 78 205 92 30 14 235 106 455 205
220 99 433 195 473 214 41 19 75 34 77 34 2 0 46 20 99 45 53 25 98 45 100 45
2 0 42 17 88 39 94 44 111 51 338 151 91 40 207 92 259 116 51 24 95 44 96 44
2 0 32 13 67 29 35 16 180 82 323 146 143 64 348 157 455 205 107 48 263 118
345 155 83 37 155 71 160 75 7 6 10 655 10 1911 l0 1903 -111 50 c-61 28 -195
89 -297 135 l-187 84 -2 1850 -3 1850 -195 88 c-279 126 -289 130 -460 207
-85 39 -236 106 -335 151 -99 45 -182 81 -185 81 -3 -1 -30 -13 -61 -28z"/>
</g>
</svg>
