<svg xmlns="http://www.w3.org/2000/svg" width="240" height="240"><g fill-rule="evenodd" stroke="null"><path fill="#380d09" d="M47.65 88.456c2.058 2.836 19.407 8.185 45.286 13.757 25.879 4.96 52.792 24.544 73.722 18.505 14.158-4.092 29.516-40.559 29.516-45.975v-.556c0-3.78-2.836-6.817-7.651-9.341-19.74-10.087-23.477-13.802-30.795-11.789-37.99 10.487-105.062 5.127-110.077 35.399zm0 74.044c2.058 2.881 19.407 8.186 45.286 13.769 28.915 5.271 54.06 22.453 75.001 16.403 14.158-4.092 28.237-38.457 28.237-43.884v-.534c0-3.77-2.836-6.817-7.651-9.33-15.059-8.007-34.954-16.827-42.26-14.814-38.058 10.465-88.926 12.768-98.612 38.39z"/><path fill="#555" d="M47.44 104.37v.534a4 4 0 0 1 0-.534z"/><path fill="#de3423" d="M167.882 15C132.894 25.11 77.389 30.816 47.484 30.816v57.107a.9.9 0 0 0 .211.534c20.407 0 83.409-6.673 121.421-17.127a143.5 143.5 0 0 0 19.451-6.461c4.649-2.09 7.651-4.293 7.651-6.584V.688c-.044 5.427-14.18 10.231-28.336 14.312zm0 74.056c-20.942 6.04-49.2 10.532-74.946 13.157-17.282 1.768-33.43 2.691-45.452 2.691v57.063a.9.9 0 0 0 .211.534c20.407 0 83.409-6.673 121.421-17.116a145 145 0 0 0 19.451-6.461c4.649-2.102 7.651-4.293 7.651-6.584V74.743c-.044 5.416-14.18 10.22-28.336 14.313zm0 74.101c-20.942 6.039-49.2 10.52-74.946 13.156-17.305 1.768-33.475 2.692-45.497 2.692v57.552c20.196 0 83.52-6.617 121.633-17.116 14.046-3.87 27.102-8.274 27.102-13.056v-57.597c0 5.472-14.135 10.232-28.292 14.369z"/></g></svg>