<svg xmlns="http://www.w3.org/2000/svg" xml:space="preserve" width="1080" height="1080" viewBox="0 0 1080 1080"><rect width="100%" height="100%" fill="transparent"/><path d="M30.55 94.83c1.85 2.55 17.45 7.36 40.72 12.37 23.27 4.46 47.47 22.07 66.29 16.64 12.73-3.68 26.54-36.47 26.54-41.34V82c0-3.4-2.55-6.13-6.88-8.4-17.75-9.07-21.11-12.41-27.69-10.6-34.16 9.43-94.47 4.61-98.98 31.83m0 66.58C32.4 164 48 168.77 71.27 173.79c26 4.74 48.61 20.19 67.44 14.75 12.73-3.68 25.39-34.58 25.39-39.46v-.48c0-3.39-2.55-6.13-6.88-8.39-13.54-7.2-31.43-15.13-38-13.32-34.22 9.41-79.96 11.48-88.67 34.52" style="stroke:none;stroke-width:1;stroke-dasharray:none;stroke-linecap:butt;stroke-dashoffset:0;stroke-linejoin:miter;stroke-miterlimit:4;fill:#380d09;fill-rule:evenodd;opacity:1" transform="translate(433.958 406.254)scale(1.09)" vector-effect="non-scaling-stroke"/><path d="M30.36 109.14v.48a4 4 0 0 1 0-.48" style="stroke:none;stroke-width:1;stroke-dasharray:none;stroke-linecap:butt;stroke-dashoffset:0;stroke-linejoin:miter;stroke-miterlimit:4;fill:#555;fill-rule:evenodd;opacity:1" transform="translate(433.948 406.254)scale(1.09)" vector-effect="non-scaling-stroke"/><path d="M138.66 28.78C107.2 37.87 57.29 43 30.4 43v51.35a.8.8 0 0 0 .19.48c18.35 0 75-6 109.18-15.4a129 129 0 0 0 17.49-5.81c4.18-1.88 6.88-3.86 6.88-5.92V15.91c-.04 4.88-12.75 9.2-25.48 12.87" style="stroke:none;stroke-width:1;stroke-dasharray:none;stroke-linecap:butt;stroke-dashoffset:0;stroke-linejoin:miter;stroke-miterlimit:4;fill:#de3423;fill-rule:evenodd;opacity:1" transform="translate(433.948 406.254)scale(1.09)" vector-effect="non-scaling-stroke"/><path d="M138.66 95.37c-18.83 5.43-44.24 9.47-67.39 11.83-15.54 1.59-30.06 2.42-40.87 2.42v51.31a.8.8 0 0 0 .19.48c18.35 0 75-6 109.18-15.39a130 130 0 0 0 17.49-5.81c4.18-1.89 6.88-3.86 6.88-5.92V82.5c-.04 4.87-12.75 9.19-25.48 12.87m0 66.63c-18.83 5.43-44.24 9.46-67.39 11.83-15.56 1.59-30.1 2.42-40.91 2.42V228c18.16 0 75.1-5.95 109.37-15.39 12.63-3.48 24.37-7.44 24.37-11.74v-51.79c0 4.92-12.71 9.2-25.44 12.92" style="stroke:none;stroke-width:1;stroke-dasharray:none;stroke-linecap:butt;stroke-dashoffset:0;stroke-linejoin:miter;stroke-miterlimit:4;fill:#de3423;fill-rule:evenodd;opacity:1" transform="translate(433.948 406.265)scale(1.09)" vector-effect="non-scaling-stroke"/></svg>