<svg xmlns="http://www.w3.org/2000/svg" viewBox="0 0 1200 320"><style>.cell,.hdr{fill:#000}.hdr{font:600 16px Inter,Segoe UI,Arial,sans-serif}.cell{font:15px Inter,Segoe UI,Arial,sans-serif}.box{fill:#fff;stroke:#06c;stroke-width:1}.ok{fill:#e1ffe1;stroke:#2d7a2d}.bad{fill:#ffe1e1;stroke:#c00}</style><g transform="translate(20 10)"><rect width="220" height="42" class="box" rx="6"/><text x="16" y="28" class="hdr">Policy</text><rect width="260" height="42" x="220" class="box" rx="6"/><text x="236" y="28" class="hdr">Missing Fields</text><rect width="200" height="42" x="480" class="box" rx="6"/><text x="496" y="28" class="hdr">Extra Fields</text><rect width="220" height="42" x="680" class="box" rx="6"/><text x="696" y="28" class="hdr">Type Mismatch</text><rect width="260" height="42" x="900" class="box" rx="6"/><text x="916" y="28" class="hdr">Order / Case / Position</text><rect width="220" height="56" y="52" class="box" rx="6"/><text x="16" y="86" class="cell">Exact</text><rect width="260" height="56" x="220" y="52" class="bad" rx="6"/><text x="236" y="86" class="cell">❌ reject</text><rect width="200" height="56" x="480" y="52" class="bad" rx="6"/><text x="496" y="86" class="cell">❌ reject</text><rect width="220" height="56" x="680" y="52" class="bad" rx="6"/><text x="696" y="86" class="cell">❌ reject</text><rect width="260" height="56" x="900" y="52" class="box" rx="6"/><text x="916" y="86" class="cell">As configured (Ordered/CI/By‑Pos)</text><rect width="220" height="56" y="118" class="box" rx="6"/><text x="16" y="152" class="cell">Backward</text><rect width="260" height="56" x="220" y="118" rx="6" style="fill:#fff4e1;stroke:#c80"/><text x="236" y="152" class="cell">⚠ allow if optional/defaulted</text><rect width="200" height="56" x="480" y="118" class="ok" rx="6"/><text x="496" y="152" class="cell">✅ allow</text><rect width="220" height="56" x="680" y="118" class="bad" rx="6"/><text x="696" y="152" class="cell">❌ reject</text><rect width="260" height="56" x="900" y="118" class="box" rx="6"/><text x="916" y="152" class="cell">Flexible (Order/Case/By‑Pos)</text><rect width="220" height="56" y="184" class="box" rx="6"/><text x="16" y="218" class="cell">Forward</text><rect width="260" height="56" x="220" y="184" class="ok" rx="6"/><text x="236" y="218" class="cell">✅ allow</text><rect width="200" height="56" x="480" y="184" class="bad" rx="6"/><text x="496" y="218" class="cell">❌ reject</text><rect width="220" height="56" x="680" y="184" class="bad" rx="6"/><text x="696" y="218" class="cell">❌ reject</text><rect width="260" height="56" x="900" y="184" class="box" rx="6"/><text x="916" y="218" class="cell">Flexible (Order/Case/By‑Pos)</text><rect width="220" height="56" y="250" class="box" rx="6"/><text x="16" y="284" class="cell">Full</text><rect width="260" height="56" x="220" y="250" class="ok" rx="6"/><text x="236" y="284" class="cell">✅ allow</text><rect width="200" height="56" x="480" y="250" class="ok" rx="6"/><text x="496" y="284" class="cell">✅ allow</text><rect width="220" height="56" x="680" y="250" class="ok" rx="6"/><text x="696" y="284" class="cell">✅ allow</text><rect width="260" height="56" x="900" y="250" class="box" rx="6"/><text x="916" y="284" class="cell">Flexible (Order/Case/By‑Pos)</text></g></svg>