<svg xmlns="http://www.w3.org/2000/svg" xml:space="preserve" width="682.667" height="224.267"><path d="M807.004 404c-35-92-137.004-157-250-157C379 247 265 394 265 622c0 237.004 115 385 300 385 112.004 0 220-70 247.004-162.004 15-45 20-107 20-234.996 0-101-7.004-164-25-206M835 1681v-550c-97.004 82-187.004 117-310 117C215 1248 0 996 0 631 0 264 220 4 532.004 4 649 4 752.004 44 834 124V32h252v1650zM1948 409c0-70-10-97-45-127-45-40-122-68-187-68-122 0-223 80-223 178 0 80 53 127 170 155 78 18 142 25 285 40zm255 22v438.004C2203 1011 2188 1066 2126 1131c-72 78-205 120-370 120-167 0-335-40-497-122l105-202c167 72.004 250 92 365 92 155 0 218-54.996 220-189.996v-38c-202-20-270-28.008-350-42-255-50-375-162.004-375-352.004 0-225 195-395 452-395 137 0 245 50 322 147 25-82 92-132 205-147l128 195c-116 47-128 72-128 234m564 10c0-147 30-182 155-182 42 0 90 5 142 15l32-222c-82-22-175-35-255-35-235 0-327 97-327 340v650h-217v217h217v367l252 90v-457h314v-217h-313zm871 0c0-147 30-182 155-182 42 0 90 5 142 15l32-222c-82-22-175-35-255-35-235 0-327 97-327 340v650h-217v217h217v367l252 90v-457h313v-217h-313zm907-195c-185 0-307 152-307 380 0 228.004 125 385 310 385 180 0 300-153 300-385 0-227-123-380-303-380m-10 1008c-332 0-555-253-555-632 0-367 235-622 575-622 333 0 565 257 565 622 0 374-237 632-585 632" style="fill:#489fdd;fill-opacity:1;fill-rule:nonzero;stroke:none" transform="matrix(.13333 0 0 -.13333 0 224.267)"/></svg>