<svg xmlns="http://www.w3.org/2000/svg" width="638.724" height="156.562" viewBox="-10.63 -10.63 1530.522 375.591"><path d="M265.91 124.359H88.738V87.053H265.91zm-1.552 142.976h-39.484V152.32h39.484zm-67.452 0h-39.48V152.32h39.48zm-67.139 0H90.29V152.32h39.477zM177.167 0C79.32 0 0 79.317 0 177.162c0 97.848 79.32 177.17 177.167 177.17s177.165-79.322 177.165-177.17C354.332 79.318 275.015 0 177.167 0m1270.246 160.865c18.75 0 22.337 15.553 23.15 30.718h-44.288c.388-13.573 4.388-30.718 21.138-30.718m2.4 87.354c-19.95 0-23.538-17.154-23.538-33.893h82.988c0-40.306-14.363-76.201-61.038-76.201-40.3 0-60.637 32.709-60.637 69.814 0 38.686 23.125 63.025 61.812 63.025 26.35 0 53.463-11.157 55.463-40.689h-33.5c-2.413 11.958-9.175 17.944-21.55 17.944m-153.2-83.378h-27.925v-49.457H1297c15.975 0 29.138 6.766 29.138 24.333 0 17.944-13.163 25.124-29.525 25.124m31.112 13.169c22.35-6.38 39.112-19.94 39.112-44.674 0-34.717-32.325-46.277-62.25-46.277h-74.592V267.38h38.693v-73.006h30.324c34.713 0 26.326 48.267 31.9 73.006h42.3c-19.162-33.917 4-79.795-45.487-89.37m-176.327-3.192h-33.514c-.798-9.18-9.18-13.953-17.944-13.953-7.984 0-19.554 2.39-19.156 12.76.4 7.98 9.18 10.371 15.555 11.959l14.374 3.609c21.943 4.78 47.075 13.952 47.075 40.285 0 31.91-32.733 41.486-59.06 41.486-25.927 0-51.457-11.564-53.45-39.49h34.71c1.196 11.167 9.976 16.745 20.748 16.745 9.578 0 21.928-3.984 21.928-15.548 0-23.936-74.995-6.788-74.995-55.457 0-29.519 29.53-39.089 54.262-39.089 22.742 0 45.482 9.171 49.068 33.906zm-123.267 0H994.62c-.814-9.18-9.18-13.953-17.96-13.953-7.984 0-19.554 2.39-19.156 12.76.398 7.98 9.18 10.371 15.57 11.959l14.358 3.609c21.944 4.78 47.075 13.952 47.075 40.285 0 31.91-32.717 41.486-59.042 41.486-25.929 0-51.458-11.564-53.466-39.49h34.708c1.195 11.167 9.977 16.745 20.749 16.745 9.578 0 21.944-3.984 21.944-15.548 0-23.936-75.011-6.789-75.011-55.457 0-29.519 29.53-39.089 54.262-39.089 22.741 0 45.481 9.171 49.068 33.906l.413 2.786m-165.576-56.645h39.905V87.06h-39.905v31.113zm1.195 149.208h37.499V141.71h-37.5zm-105.719 0-17.943-59.844c-4-13.162-6.39-26.339-9.18-39.501-2.008 9.58-3.585 19.167-6.39 28.334l-2.79 9.976-16.748 61.035h-44.286l-41.096-125.67h42.29l17.563 65.826 2.39 9.166 1.991 8.785 2.392 15.554c1.991-15.159 5.593-29.514 9.577-43.876l15.553-55.455h43.092l16.35 57.846c3.999 13.565 6.789 27.124 8.781 41.095l1.195-7.188c1.593-11.96 4.78-23.53 8.383-35.5l15.553-56.253h40.302l-43.09 125.67zM605.23 137.72h-37.1c-.395-17.563-13.169-27.531-30.316-27.531-14.764 0-31.91 5.577-31.91 23.147 0 39.888 104.515 13.563 104.515 78.988 0 40.3-34.709 58.64-71.41 58.64-41.896 0-76.598-14.745-76.196-60.634h39.496c0 19.945 10.772 33.509 31.91 33.509 15.562 0 36.311-5.578 36.311-24.337 0-41.887-102.93-13.558-102.93-80.98 0-39.903 37.099-55.457 71.409-55.457 36.302 0 63.83 17.555 66.221 54.655" style="fill:#4a6f67;fill-opacity:1;fill-rule:nonzero;stroke:none"/></svg>