<svg xmlns="http://www.w3.org/2000/svg" xml:space="preserve" viewBox="0 0 140 25"><path d="M7 18.5c-.1-.1-.1-.1-.1-.2L2.7 6.8C4.2 5.2 6 4 8.1 3.5s4.3-.3 6.3.5 3.7 2.2 4.9 4 1.8 4 1.8 6.2c0 1.5-.3 3.1-.9 4.5l-3.2-9-.3-.9c-.5-1.5-1.5-2.2-2.9-2.2s-2.4.8-2.9 2.2l-.2.5-1.3 3.8-1.8 5.1c0 .1 0 .2-.1.2-.1.1-.1.1-.2.1-.2.1-.3 0-.3 0m7.1-8.9L17 18l1.2 3.5c-1.7 1.9-4 3-6.5 3.3s-5-.3-7-1.7c-2.1-1.4-3.6-3.5-4.3-6s-.5-5.1.4-7.4L4.2 19c.5 1.5 1.6 2.2 2.9 2.2 1.4 0 2.4-.8 2.9-2.2l.2-.6 3.1-8.8c0-.1.1-.2.1-.2.1-.1.1-.1.2-.1s.1 0 .2.1c.2.1.2.1.3.2" style="fill-rule:evenodd;clip-rule:evenodd;fill:#05b89c"/><path d="M109.4 1.9c0 1-.8 1.9-1.8 1.9s-1.8-.8-1.8-1.9c0-1 .8-1.9 1.8-1.9s1.8.8 1.8 1.9M48.2 6.4c-4.2 0-7 3.3-7 7.5 0 4.4 3.1 7.6 7.4 7.6 2.7 0 5-1.3 6.2-3.8l-2.2-1.2c-.8 1.6-2.4 2.3-4.1 2.3-2.5 0-4.3-1.7-4.6-4.2H55v-1.2c.1-3.9-2.6-7-6.8-7m0 2.6c2.3 0 3.9 1.5 4 3.8H44c.3-2.2 1.9-3.8 4.2-3.8M29.1 6.8h-3l4.5 12.4c.5 1.5 1.6 2.2 2.9 2.2 1.4 0 2.4-.8 2.9-2.2l4.5-12.4h-3l-4.1 11.7c0 .1 0 .2-.1.2-.1.1-.1.1-.2.1s-.2 0-.2-.1c-.1-.1-.1-.1-.1-.2zm27.6 14.3v-8.5c0-3.5 1.9-6.1 5.6-6.1.9 0 1.7.2 2.5.5v2.9c-.7-.4-1.5-.6-2.2-.6-1.9 0-3 1.3-3 3.4v8.4zM68.8 6.8h-3l4.5 12.4c.6 1.5 1.5 2.2 2.9 2.2s2.4-.8 2.9-2.2l4.5-12.4h-3l-4.1 11.7c0 .1-.1.2-.1.2-.1.1-.1.1-.2.1s-.2 0-.2-.1c-.1-.1-.1-.1-.1-.2zm12.2 7c0-4.1 2.9-7.5 7-7.5 4.2 0 6.8 3.1 6.8 7.1v1.2H83.7c.3 2.5 2.1 4.2 4.6 4.2 1.7 0 3.2-.8 4.1-2.3l2.2 1.2c-1.2 2.4-3.5 3.8-6.2 3.8-4.3-.1-7.4-3.3-7.4-7.7m11-1c-.1-2.3-1.7-3.8-4-3.8s-3.9 1.7-4.2 3.8zm4.5-.2v8.5h2.8v-8.4c0-2.1 1.1-3.4 3-3.4.8 0 1.6.2 2.3.6V7c-.8-.4-1.6-.5-2.5-.5-3.7 0-5.6 2.6-5.6 6.1m14.3 1.3c0-4.1 3.3-7.5 7.3-7.5 2.6 0 4.9 1.2 6.2 3.8l-2.3 1.3c-.4-.7-.9-1.3-1.6-1.8-.7-.4-1.5-.6-2.3-.6-2.4 0-4.5 2.1-4.5 4.7s2 4.8 4.5 4.8c.8 0 1.6-.2 2.3-.6s1.2-1 1.6-1.8l2.3 1.3c-1.3 2.6-3.6 3.8-6.2 3.8-4.1.2-7.3-3.3-7.3-7.4m26.5-6.1V6.5h2.7v14.3h-2.7v-2.5c-1.1 1.8-2.9 3.1-5.2 3.1-4 0-7-3.5-7-7.5s3.2-7.5 7.4-7.5c1.9 0 3.6.4 4.8 1.4m-8 9.5c.9.9 2.1 1.4 3.3 1.4 2.6 0 4.6-2.4 4.6-5s-2-4.6-4.6-4.6c-1.2 0-2.4.5-3.3 1.4s-1.4 2.1-1.4 3.4.5 2.5 1.4 3.4M109.1 6.8v14.3h-2.8V6.8z" style="fill-rule:evenodd;clip-rule:evenodd;fill:#120a3d"/></svg>