<?xml version="1.0" encoding="UTF-8" standalone="no" ?>
<!DOCTYPE svg PUBLIC "-//W3C//DTD SVG 1.1//EN" "http://www.w3.org/Graphics/SVG/1.1/DTD/svg11.dtd">
<svg xmlns="http://www.w3.org/2000/svg" xmlns:xlink="http://www.w3.org/1999/xlink" version="1.1" width="1080" height="1080" viewBox="0 0 1080 1080" xml:space="preserve">
<desc>Created with Fabric.js 5.2.4</desc>
<defs>
</defs>
<rect x="0" y="0" width="100%" height="100%" fill="transparent"></rect>
<g transform="matrix(1 0 0 1 540 540)" id="d0866811-2710-4b44-9740-8dd712ae8058"  >
<rect style="stroke: none; stroke-width: 1; stroke-dasharray: none; stroke-linecap: butt; stroke-dashoffset: 0; stroke-linejoin: miter; stroke-miterlimit: 4; fill: rgb(255,255,255); fill-rule: nonzero; opacity: 1; visibility: hidden;" vector-effect="non-scaling-stroke"  x="-540" y="-540" rx="0" ry="0" width="1080" height="1080" />
</g>
<g transform="matrix(1 0 0 1 540 540)" id="6f2ae1bb-aa3f-4b99-be9c-6c4a45fc5911"  >
</g>
<g transform="matrix(1.09 0 0 1.09 539.95 539.19)"  >
<g style="" vector-effect="non-scaling-stroke"   >
		<g transform="matrix(1 0 0 1 0.08 -28.26)"  >
<path style="stroke: none; stroke-width: 1; stroke-dasharray: none; stroke-linecap: butt; stroke-dashoffset: 0; stroke-linejoin: miter; stroke-miterlimit: 4; fill: rgb(56,13,9); fill-rule: evenodd; opacity: 1;" vector-effect="non-scaling-stroke"  transform=" translate(-97.32, -93.7)" d="M 30.55 94.83 C 32.4 97.38 48 102.19 71.27 107.2 C 94.53999999999999 111.66 118.74 129.27 137.56 123.84 C 150.29 120.16 164.1 87.37 164.1 82.5 L 164.1 82 C 164.1 78.6 161.54999999999998 75.87 157.22 73.6 C 139.47 64.53 136.11 61.19 129.53 62.99999999999999 C 95.37 72.43 35.06 67.61 30.55 94.83 Z" stroke-linecap="round" />
</g>
		<g transform="matrix(1 0 0 1 0.08 36.2)"  >
<path style="stroke: none; stroke-width: 1; stroke-dasharray: none; stroke-linecap: butt; stroke-dashoffset: 0; stroke-linejoin: miter; stroke-miterlimit: 4; fill: rgb(56,13,9); fill-rule: evenodd; opacity: 1;" vector-effect="non-scaling-stroke"  transform=" translate(-97.32, -158.16)" d="M 30.55 161.41 C 32.4 164 48 168.77 71.27 173.79 C 97.27 178.53 119.88 193.98 138.70999999999998 188.54 C 151.43999999999997 184.85999999999999 164.09999999999997 153.95999999999998 164.09999999999997 149.07999999999998 L 164.09999999999997 148.6 C 164.09999999999997 145.21 161.54999999999995 142.47 157.21999999999997 140.20999999999998 C 143.67999999999998 133.01 125.78999999999996 125.07999999999998 119.21999999999997 126.88999999999999 C 85 136.3 39.26 138.37 30.55 161.41 Z" stroke-linecap="round" />
</g>
		<g transform="matrix(1 0 0 1 -66.89 -12.58)"  >
<path style="stroke: none; stroke-width: 1; stroke-dasharray: none; stroke-linecap: butt; stroke-dashoffset: 0; stroke-linejoin: miter; stroke-miterlimit: 4; fill: rgb(85,85,85); fill-rule: evenodd; opacity: 1;" vector-effect="non-scaling-stroke"  transform=" translate(-30.36, -109.38)" d="M 30.36 109.14 L 30.36 109.62 L 30.36 109.62 C 30.349694416382 109.46016594539643 30.349694416382 109.29983405460358 30.36 109.14 Z" stroke-linecap="round" />
</g>
		<g transform="matrix(1 0 0 1 0.02 -66.59)"  >
<path style="stroke: none; stroke-width: 1; stroke-dasharray: none; stroke-linecap: butt; stroke-dashoffset: 0; stroke-linejoin: miter; stroke-miterlimit: 4; fill: rgb(222,52,35); fill-rule: evenodd; opacity: 1;" vector-effect="non-scaling-stroke"  transform=" translate(-97.27, -55.37)" d="M 138.66 28.78 C 107.2 37.87 57.29 43 30.4 43 L 30.4 43 L 30.4 94.35 C 30.408551236545357 94.5265997712274 30.475364754179687 94.69539181577727 30.59 94.83 C 48.94 94.83 105.59 88.83 139.77 79.42999999999999 C 145.73106299409454 77.91279835554062 151.57597543918058 75.97117792638394 157.26000000000002 73.61999999999998 C 161.44000000000003 71.74 164.14000000000001 69.75999999999999 164.14000000000001 67.69999999999999 L 164.14000000000001 15.91 C 164.1 20.79 151.39 25.11 138.66 28.78 Z" stroke-linecap="round" />
</g>
		<g transform="matrix(1 0 0 1 0.02 0)"  >
<path style="stroke: none; stroke-width: 1; stroke-dasharray: none; stroke-linecap: butt; stroke-dashoffset: 0; stroke-linejoin: miter; stroke-miterlimit: 4; fill: rgb(222,52,35); fill-rule: evenodd; opacity: 1;" vector-effect="non-scaling-stroke"  transform=" translate(-97.27, -121.95)" d="M 138.66 95.37 C 119.83 100.80000000000001 94.41999999999999 104.84 71.27 107.2 C 55.73 108.79 41.209999999999994 109.62 30.4 109.62 L 30.4 109.62 L 30.4 160.93 C 30.40855123654536 161.1065997712274 30.47536475417969 161.27539181577728 30.59 161.41 C 48.94 161.41 105.59 155.41 139.77 146.01999999999998 C 145.72975054782657 144.4983213567486 151.57434819639826 142.55680549979024 157.26000000000005 140.20999999999995 C 161.44000000000003 138.32 164.14000000000001 136.34999999999997 164.14000000000001 134.29 L 164.14000000000001 82.5 C 164.1 87.37 151.39 91.69 138.66 95.37 Z" stroke-linecap="round" />
</g>
		<g transform="matrix(1 0 0 1 -0.02 66.59)"  >
<path style="stroke: none; stroke-width: 1; stroke-dasharray: none; stroke-linecap: butt; stroke-dashoffset: 0; stroke-linejoin: miter; stroke-miterlimit: 4; fill: rgb(222,52,35); fill-rule: evenodd; opacity: 1;" vector-effect="non-scaling-stroke"  transform=" translate(-97.23, -188.54)" d="M 138.66 162 C 119.83 167.43 94.41999999999999 171.46 71.27 173.83 C 55.709999999999994 175.42000000000002 41.169999999999995 176.25 30.36 176.25 L 30.36 228 C 48.519999999999996 228 105.46 222.05 139.73000000000002 212.61 C 152.36 209.13000000000002 164.10000000000002 205.17000000000002 164.10000000000002 200.87 L 164.10000000000002 149.08 C 164.1 154 151.39 158.28 138.66 162 Z" stroke-linecap="round" />
</g>
</g>
</g>
</svg>