<svg id="Layer_1" data-name="Layer 1" xmlns="http://www.w3.org/2000/svg" viewBox="0 0 200 260">
<title>scala-full-color</title>
<path d="M30.55,94.83C32.4,97.38,48,102.19,71.27,107.2c23.27,4.46,47.47,22.07,66.29,16.64,12.73-3.68,26.54-36.47,26.54-41.34V82c0-3.4-2.55-6.13-6.88-8.4-17.75-9.07-21.11-12.41-27.69-10.6C95.37,72.43,35.06,67.61,30.55,94.83Z" style="fill:#380d09;fill-rule:evenodd"/>
<path d="M30.55,161.41C32.4,164,48,168.77,71.27,173.79c26,4.74,48.61,20.19,67.44,14.75,12.73-3.68,25.39-34.58,25.39-39.46v-.48c0-3.39-2.55-6.13-6.88-8.39-13.54-7.2-31.43-15.13-38-13.32C85,136.3,39.26,138.37,30.55,161.41Z" style="fill:#380d09;fill-rule:evenodd"/>
<path d="M30.36,109.14v.48h0A3.73,3.73,0,0,1,30.36,109.14Z" style="fill:#555;fill-rule:evenodd"/>
<path d="M138.66,28.78C107.2,37.87,57.29,43,30.4,43h0V94.35a.8.8,0,0,0,.19.48c18.35,0,75-6,109.18-15.4a129,129,0,0,0,17.49-5.81c4.18-1.88,6.88-3.86,6.88-5.92V15.91C164.1,20.79,151.39,25.11,138.66,28.78Z" style="fill:#de3423;fill-rule:evenodd"/>
<path d="M138.66,95.37c-18.83,5.43-44.24,9.47-67.39,11.83-15.54,1.59-30.06,2.42-40.87,2.42h0v51.31a.8.8,0,0,0,.19.48c18.35,0,75-6,109.18-15.39a130.38,130.38,0,0,0,17.49-5.81c4.18-1.89,6.88-3.86,6.88-5.92V82.5C164.1,87.37,151.39,91.69,138.66,95.37Z" style="fill:#de3423;fill-rule:evenodd"/>
<path d="M138.66,162c-18.83,5.43-44.24,9.46-67.39,11.83-15.56,1.59-30.1,2.42-40.91,2.42V228c18.16,0,75.1-5.95,109.37-15.39,12.63-3.48,24.37-7.44,24.37-11.74V149.08C164.1,154,151.39,158.28,138.66,162Z" style="fill:#de3423;fill-rule:evenodd"/>
</svg>
