<svg width="240" height="240" xmlns="http://www.w3.org/2000/svg">

 <g>
  <title>Layer 1</title>
  <g stroke="null">
   <title stroke="null">scala-full-color</title>
   <path stroke="null" fill-rule="evenodd" fill="#380d09" d="m47.6506,88.45589c2.05742,2.8359 19.40646,8.18519 45.28544,13.7569c25.87898,4.96005 52.79224,24.54444 73.7223,18.50564c14.15726,-4.09259 29.51561,-40.55894 29.51561,-45.97496l0,-0.55606c0,-3.7812 -2.8359,-6.81728 -7.65137,-9.34179c-19.74009,-10.08691 -23.47681,-13.80138 -30.79455,-11.78845c-37.98995,10.48727 -105.06178,5.12686 -110.07743,35.39871z"/>
   <path stroke="null" fill-rule="evenodd" fill="#380d09" d="m47.6506,162.5007c2.05742,2.88039 19.40646,8.18519 45.28544,13.76802c28.91507,5.27144 54.06005,22.45366 75.00123,16.40374c14.15726,-4.09259 28.23667,-38.45704 28.23667,-43.88417l0,-0.53382c0,-3.77008 -2.8359,-6.81728 -7.65137,-9.33067c-15.05808,-8.00725 -34.95387,-16.82634 -42.26048,-14.81341c-38.05668,10.46503 -88.92495,12.76711 -98.6115,38.39031z"/>
   <path stroke="null" fill-rule="evenodd" fill="#555" d="m47.43929,104.3703l0,0.53382l0,0a4.1482,4.1482 0 0 1 0,-0.53382z"/>
   <path stroke="null" fill-rule="evenodd" fill="#de3423" d="m167.88167,15.0005c-34.98723,10.10915 -90.49304,15.81432 -120.39789,15.81432l0,0l0,57.10726a0.88969,0.88969 0 0 0 0.2113,0.53382c20.40736,0 83.40885,-6.67271 121.42104,-17.12662a143.46321,143.46321 0 0 0 19.45094,-6.46141c4.64865,-2.09078 7.65137,-4.29278 7.65137,-6.58374l0,-57.59659c-0.04448,5.42714 -14.1795,10.23149 -28.33677,14.31296z"/>
   <path stroke="null" fill-rule="evenodd" fill="#de3423" d="m167.88167,89.05644c-20.94118,6.0388 -49.2001,10.53176 -74.94563,13.15636c-17.28231,1.76827 -33.43027,2.69133 -45.45226,2.69133l0,0l0,57.06277a0.88969,0.88969 0 0 0 0.2113,0.53382c20.40736,0 83.40885,-6.67271 121.42104,-17.1155a144.99794,144.99794 0 0 0 19.45094,-6.46141c4.64865,-2.1019 7.65137,-4.29278 7.65137,-6.58374l0,-57.59659c-0.04448,5.41601 -14.1795,10.22036 -28.33677,14.31296z"/>
   <path stroke="null" fill-rule="evenodd" fill="#de3423" d="m167.88167,163.15685c-20.94118,6.0388 -49.2001,10.52064 -74.94563,13.15636c-17.30456,1.76827 -33.47475,2.69133 -45.49675,2.69133l0,57.5521c20.19606,0 83.52006,-6.6171 121.63234,-17.1155c14.04605,-3.87017 27.10231,-8.27416 27.10231,-13.05626l0,-57.59659c0,5.47162 -14.13502,10.23149 -28.29228,14.36856z"/>
  </g>
 </g>
</svg>