<svg width="48" height="48" xmlns="http://www.w3.org/2000/svg" version="1.1">
 <title>navbar-brand</title>

 <g>
  <title>Layer 1</title>
  <polygon stroke="null" points="23.77459716796875,48 3,35.86206817626953 3,12.137930870056152 23.77459716796875,0 44.5491943359375,12.137930870056152 44.5491943359375,35.86206817626953 " fill="#FE4559" id="path"/>
  <polygon stroke="null" points="16.620430946350098,29.517240524291992 16.620430946350098,35.034481048583984 29.552961349487305,27.44827651977539 29.552961349487305,21.931034088134766 " fill="#FF6169" id="path"/>
  <polygon stroke="null" points="21.435733795166016,26.758621215820312 16.620430946350098,24 29.552961349487305,16.413793563842773 34.36826515197754,19.172412872314453 " fill="#FF6169" id="path"/>
  <polygon stroke="null" points="16.620430946350098,18.482759475708008 11.805127143859863,15.724138259887695 24.73765754699707,8.137930870056152 29.552961349487305,10.896552085876465 " fill="#FF6169" id="path"/>
  <polygon stroke="null" points="21.435733795166016,26.758621215820312 21.435733795166016,32.27586364746094 34.36826515197754,24.689655303955078 34.36826515197754,19.172412872314453 " fill="#FFB4B5" id="path"/>
  <polygon stroke="null" points="16.620430946350098,18.482759475708008 16.620430946350098,24 29.552961349487305,16.413793563842773 29.552961349487305,10.896552085876465 " fill="#FFB4B5" id="path"/>
  <polygon stroke="null" points="11.805127143859863,32.27586364746094 16.620430946350098,35.034481048583984 16.620430946350098,29.517240524291992 21.435733795166016,32.27586364746094 21.435733795166016,26.758621215820312 16.620430946350098,24 16.620430946350098,18.482759475708008 11.805127143859863,15.724138259887695 " fill="#FFFFFF" id="path"/>
 </g>
</svg>